# xmcd
#
# Track frame offsets:
#	150
#	4453
#	13502
#	22929
#	32000
#	41823
#	50890
#	59957
#	69018
#	78091
#	87150
#	96215
#	105288
#	115115
#	124192
#	133273
#	142332
#	152891
#	161962
#	171027
#	180074
#	189153
#	198216
#	207265
#	216686
#	225725
#	234764
#	243809
#	252846
#	261915
#	270976
#	280043
#	289102
#	298187
#	307236
#
# Disc length: 4217 seconds
#
# Revision: 1
# Processed by: cddbd v1.4PL0 Copyright (c) Steve Scherf et al.
# Submitted via: audiograbber 1.82.01
#
DISCID=f8107723
DTITLE=Various Artist - DJ LRM - Instrumental World Vol. 10 (Wu-Tang Edition))
DYEAR=2003
DGENRE=Hip-Hop
TTITLE0=Wu-Tang - Method Man
TTITLE1=Wu-Tang - C.R.E.A.M.
TTITLE2=Wu-Tang - Da Mystery Of Chessboxin'
TTITLE3=Wu-Tang - Can It Be All So Simple
TTITLE4=Wu-Tang - Wu-Tang Clan Ain't Nuthin To F'Wit
TTITLE5=Wu-Tang - Triumph
TTITLE6=Raekwon Feat. Ghostface Killah and Method Man - Ice Cream
TTITLE7=Raekwon and Ghostface Killah - Incarcerated Scarfaces
TTITLE8=Raekwon and Ghostface Killah - Glaciers Of Ice
TTITLE9=Ghostface Killah - Motherless Child
TTITLE10=Ol' Dirty Bastard - Shimmy Shimmy Ya
TTITLE11=Method Man Feat. Mary J. Blige - All I Need (Puff Daddy Mix)
TTITLE12=Method Man Feat. Mary J. Blige - All I Need (Razor Sharp Mix)
TTITLE13=Wu-Tang - It's Yourz
TTITLE14=Ghostface Killah - Cobra Clutch
TTITLE15=Rza Feat. Method Man and Cappadonna - Wu Wear
TTITLE16=Ghostface Killah Feat. Raekwon and Cappadonna - Camay
TTITLE17=Ghostface Killah Feat. Raekwon and Cappadonna - Daytona 500
TTITLE18=Inspectah Deck - Movers and Shakers
TTITLE19=Inspectah Deck - Word On The Street
TTITLE20=Ghostface Killah and Raekwon - Apollo Kids
TTITLE21=Gza/Genius - Breaker, Breaker
TTITLE22=Gza/Genius - Publicity
TTITLE23=Method Man - Even If
TTITLE24=Ghostface Killah Feat. U-God - Cher Chez La Ghost
TTITLE25=Wu-Tang - Protect Ya kneck - The Jump Off
TTITLE26=Wu-Tang - Rules
TTITLE27=Wu-Tang - In The Hood
TTITLE28=Shyheim - Unconditional Love
TTITLE29=Ghostface Killah Feat. Raekwon and Carl Thomas - Never Be The Same Again
TTITLE30=Wu-Tang - Gravel Pit
TTITLE31=Wu-Tang - Pinky Ring
TTITLE32=Wu-Tang - Ya'll Been Warned
TTITLE33=Raekwon - Live From NY
TTITLE34=Raekwon - Power
EXTD=
EXTT0=
EXTT1=
EXTT2=
EXTT3=
EXTT4=
EXTT5=
EXTT6=
EXTT7=
EXTT8=
EXTT9=
EXTT10=
EXTT11=
EXTT12=
EXTT13=
EXTT14=
EXTT15=
EXTT16=
EXTT17=
EXTT18=
EXTT19=
EXTT20=
EXTT21=
EXTT22=
EXTT23=
EXTT24=
EXTT25=
EXTT26=
EXTT27=
EXTT28=
EXTT29=
EXTT30=
EXTT31=
EXTT32=
EXTT33=
EXTT34=
PLAYORDER=
